<svg width="240" height="40" viewBox="0 0 240 40" fill="none" xmlns="http://www.w3.org/2000/svg">
<path d="M240 0H0V40H240V0Z" fill="#111111"/>
<path d="M21.81 11.0002C22.6537 10.9957 23.4953 11.0829 24.3201 11.2602C25.0409 11.4106 25.7222 11.7103 26.3201 12.1402C26.8871 12.5535 27.3354 13.1088 27.62 13.7502C27.9535 14.5403 28.1138 15.3928 28.09 16.2502C28.1077 17.1721 27.9127 18.0858 27.52 18.9202C27.1572 19.6903 26.6318 20.3727 25.98 20.9202C25.3189 21.4667 24.563 21.887 23.75 22.1602C22.8867 22.4511 21.981 22.5964 21.0701 22.5903H16.17L14.8 29.0602H10.86L14.6 11.0602L21.81 11.0002ZM20.81 19.4902C21.6714 19.5373 22.5196 19.2629 23.19 18.7201C23.5013 18.4098 23.7405 18.035 23.8909 17.622C24.0412 17.209 24.099 16.768 24.06 16.3302C24.0745 15.9395 23.992 15.5513 23.8201 15.2002C23.6722 14.9198 23.451 14.6847 23.18 14.5202C22.9003 14.3592 22.5964 14.2444 22.28 14.1802C21.951 14.1127 21.6159 14.0792 21.28 14.0802H17.89L16.78 19.4902H20.81Z" fill="white"/>
<path d="M42.6 24.92C42.2265 25.8496 41.6725 26.6959 40.97 27.41C40.2689 28.0905 39.4252 28.6063 38.5 28.92C37.3481 29.2946 36.1409 29.4704 34.9301 29.44C34.0591 29.4419 33.1904 29.348 32.34 29.16C31.5371 28.9984 30.7688 28.6972 30.0701 28.27C29.4067 27.8565 28.8512 27.2909 28.4499 26.6201C28.0171 25.856 27.8026 24.9877 27.83 24.11C27.8331 23.657 27.8766 23.2053 27.96 22.76C28.04 22.31 28.13 21.8701 28.21 21.4301L30.41 11H34.41L32.21 21.4301L32.1 21.9501C32.1 22.1401 32.01 22.3501 31.97 22.5701C31.93 22.7901 31.89 22.9901 31.87 23.1901C31.8562 23.3631 31.8562 23.537 31.87 23.7101C31.8789 23.9657 31.9261 24.2185 32.01 24.4601C32.1091 24.7682 32.2886 25.0443 32.53 25.26C32.8201 25.5294 33.1597 25.74 33.53 25.88C34.0769 26.0656 34.6529 26.1503 35.23 26.13C35.9104 26.1574 36.5897 26.0521 37.23 25.82C37.704 25.6288 38.1231 25.3231 38.4499 24.9301C38.7811 24.5147 39.029 24.0393 39.1801 23.53C39.3601 22.97 39.5301 22.3601 39.6801 21.6801L41.92 11H45.92L43.72 21.48C43.4538 22.6588 43.0789 23.8105 42.6 24.92Z" fill="white"/>
<path d="M55.23 11C56.0502 10.9934 56.8696 11.0537 57.6801 11.18C58.3302 11.2675 58.9559 11.4852 59.52 11.8201C60.029 12.1249 60.4362 12.5737 60.6901 13.11C60.9768 13.7754 61.1133 14.4958 61.09 15.22C61.088 15.722 61.0105 16.2211 60.86 16.7001C60.7181 17.1646 60.491 17.5986 60.1901 17.98C59.9036 18.3777 59.5438 18.7172 59.13 18.98C58.6925 19.2389 58.2051 19.4026 57.7 19.4601C58.5052 19.6596 59.2138 20.1378 59.7 20.8101C60.162 21.4908 60.4031 22.2974 60.39 23.12C60.4097 24.0133 60.2142 24.8982 59.8201 25.7C59.4621 26.4251 58.9419 27.0582 58.3 27.55C57.6333 28.0394 56.8898 28.4145 56.1 28.66C55.2566 28.9132 54.3806 29.0412 53.5 29.04H43.9L47.66 11.04L55.23 11ZM53.3101 25.95C54.1173 25.9853 54.9099 25.7259 55.54 25.22C55.8432 24.9499 56.0801 24.6138 56.2327 24.2375C56.3852 23.8613 56.4494 23.455 56.42 23.05C56.4401 22.659 56.3387 22.2713 56.13 21.9401C55.9349 21.6748 55.6772 21.4618 55.38 21.3201C55.0635 21.1764 54.7258 21.0851 54.38 21.05C54.01 21.05 53.65 21.05 53.29 21.05H49.4L48.34 26L53.3101 25.95ZM54.45 18.3C55.1241 18.3131 55.7841 18.106 56.33 17.7101C56.5977 17.4988 56.8097 17.2252 56.9474 16.9132C57.0851 16.6012 57.1444 16.2602 57.12 15.92C57.1518 15.6501 57.1164 15.3765 57.017 15.1235C56.9175 14.8706 56.7571 14.646 56.55 14.47C56.0954 14.1871 55.5647 14.0511 55.03 14.0801H50.83L49.95 18.3H54.45Z" fill="white"/>
<path d="M68.62 11L65.54 25.7H74.25L73.54 29.04H60.86L64.63 11.04L68.62 11Z" fill="white"/>
<path d="M82.4401 11L78.63 29H74.63L78.42 11H82.4401Z" fill="white"/>
<path d="M94.0999 14.7802C93.4608 14.2022 92.621 13.8972 91.7599 13.9302C90.832 13.914 89.9179 14.1564 89.1199 14.6302C88.381 15.0825 87.7524 15.694 87.28 16.4202C86.7896 17.1717 86.4279 17.9997 86.2099 18.8702C85.9752 19.7307 85.8542 20.6182 85.8499 21.5102C85.8456 22.1086 85.9264 22.7046 86.0899 23.2802C86.2403 23.8161 86.4914 24.3183 86.8299 24.7602C87.1624 25.1909 87.5949 25.5341 88.0899 25.7602C88.6727 26.0275 89.309 26.1575 89.9499 26.1402C90.4703 26.1406 90.9862 26.0422 91.4699 25.8502C91.9392 25.6677 92.3726 25.4036 92.7499 25.0702C93.121 24.7405 93.4352 24.352 93.68 23.9202C93.9299 23.4974 94.1026 23.0335 94.19 22.5502H98.19C97.8485 23.6754 97.3681 24.7537 96.7599 25.7602C96.2696 26.5737 95.644 27.2974 94.91 27.9002C94.2379 28.4385 93.4666 28.8394 92.64 29.0802C91.7562 29.3357 90.8399 29.4603 89.92 29.4502C88.8498 29.5271 87.775 29.3898 86.7585 29.0464C85.742 28.703 84.8042 28.1604 83.9999 27.4502C83.2685 26.659 82.7068 25.7266 82.3491 24.7103C81.9914 23.6939 81.8453 22.6151 81.92 21.5402C81.9097 20.1218 82.1396 18.7118 82.5999 17.3702C83.0414 16.0975 83.72 14.9201 84.5999 13.9002C85.4537 12.8944 86.51 12.08 87.6999 11.5102C88.985 10.9077 90.3909 10.6067 91.81 10.6302C92.7933 10.6198 93.7719 10.765 94.7099 11.0602C95.561 11.3227 96.3502 11.7547 97.03 12.3303C97.6781 12.9116 98.1902 13.6286 98.53 14.4302C98.8968 15.348 99.0671 16.3325 99.03 17.3202H95.03C95.0645 16.8551 94.9993 16.3879 94.8389 15.9499C94.6786 15.5119 94.4266 15.1131 94.0999 14.7802Z" fill="white"/>
<path d="M109.79 10.9997C110.637 10.9948 111.482 11.0819 112.31 11.2597C113.03 11.4142 113.71 11.7137 114.31 12.1397C114.877 12.5531 115.325 13.1083 115.61 13.7497C115.944 14.5399 116.104 15.3924 116.08 16.2497C116.098 17.1717 115.903 18.0854 115.51 18.9198C115.147 19.6899 114.622 20.3722 113.97 20.9198C113.306 21.4673 112.547 21.8876 111.73 22.1597C110.87 22.4513 109.968 22.5967 109.06 22.5898H104.15L102.79 29.0598H98.85L102.59 11.0598L109.79 10.9997ZM108.79 19.4897C109.655 19.5375 110.506 19.2631 111.18 18.7197C111.491 18.4094 111.731 18.0345 111.881 17.6215C112.031 17.2085 112.089 16.7676 112.05 16.3298C112.064 15.9391 111.982 15.5509 111.81 15.1998C111.662 14.9193 111.441 14.6842 111.17 14.5197C110.89 14.3587 110.586 14.2439 110.27 14.1798C109.941 14.1122 109.606 14.0788 109.27 14.0798H105.88L104.77 19.4897H108.79Z" fill="white"/>
<path d="M126.91 11.0002C127.653 10.9734 128.396 11.044 129.12 11.2102C129.744 11.348 130.328 11.6248 130.83 12.0202C131.311 12.4131 131.683 12.9226 131.91 13.5002C132.184 14.2072 132.313 14.9621 132.29 15.7201C132.292 16.3164 132.191 16.9086 131.99 17.4701C131.795 18.0084 131.504 18.5067 131.13 18.9402C130.757 19.3713 130.314 19.7364 129.82 20.0202C129.303 20.3069 128.736 20.4936 128.15 20.5702C128.474 20.653 128.775 20.8061 129.032 21.0187C129.29 21.2313 129.497 21.4982 129.64 21.8002C129.906 22.4328 130.035 23.1143 130.02 23.8002C130.02 24.2002 130.02 24.6902 129.96 25.2502C129.9 25.8102 129.89 26.3702 129.89 26.9302C129.89 27.3302 129.89 27.7202 129.89 28.0802C129.917 28.4211 129.988 28.7572 130.1 29.0802H126.23C126.23 28.8602 126.14 28.6502 126.1 28.4602C126.068 28.2617 126.051 28.0612 126.05 27.8602C126.052 27.2486 126.089 26.6376 126.16 26.0302C126.22 25.4202 126.26 24.8102 126.26 24.2002C126.271 23.8343 126.206 23.47 126.07 23.1302C125.95 22.8671 125.768 22.6372 125.54 22.4602C125.293 22.2855 125.009 22.1692 124.71 22.1202C124.36 22.0574 124.005 22.0273 123.65 22.0302H120.01L118.52 29.0302H114.58L118.35 11.0302L126.91 11.0002ZM124.23 19.1602C124.751 19.1608 125.271 19.1037 125.78 18.9901C126.237 18.8936 126.676 18.7248 127.08 18.4901C127.451 18.2712 127.763 17.9658 127.99 17.6001C128.223 17.2072 128.341 16.7568 128.33 16.3002C128.348 15.8964 128.265 15.4944 128.09 15.1302C127.944 14.8479 127.718 14.615 127.44 14.4602C127.151 14.3041 126.836 14.2024 126.51 14.1602C126.142 14.108 125.771 14.0813 125.4 14.0802H121.63L120.57 19.1602H124.23Z" fill="white"/>
<path d="M149.01 11L148.33 14.3301H138.53L137.72 18.2001H146.79L146.13 21.28H137.06L136.13 25.7H146.08L145.37 29.04H131.51L135.27 11.04L149.01 11Z" fill="white"/>
<path d="M151.29 24.6499C151.469 25.0478 151.748 25.3923 152.1 25.6499C152.48 25.9127 152.908 26.0963 153.36 26.1899C153.882 26.3016 154.416 26.3553 154.95 26.35C155.361 26.3494 155.771 26.299 156.17 26.1999C156.557 26.1055 156.928 25.9539 157.27 25.7499C157.591 25.5476 157.864 25.2781 158.07 24.9599C158.29 24.614 158.402 24.2099 158.39 23.8C158.402 23.4047 158.258 23.0204 157.99 22.7299C157.702 22.4322 157.364 22.1883 156.99 22.0099C156.516 21.7922 156.024 21.6149 155.52 21.4799L153.87 20.9999C153.3 20.8341 152.742 20.6304 152.2 20.3899C151.672 20.1634 151.183 19.8564 150.75 19.4799C150.327 19.1001 149.986 18.6371 149.75 18.1199C149.469 17.4916 149.336 16.8076 149.36 16.1199C149.334 15.2188 149.551 14.3274 149.99 13.54C150.399 12.8467 150.96 12.2552 151.63 11.81C152.332 11.3509 153.106 11.0129 153.92 10.81C154.768 10.6017 155.637 10.4975 156.51 10.4999C157.39 10.4921 158.267 10.5964 159.12 10.81C159.896 10.997 160.627 11.3369 161.27 11.81C161.892 12.2886 162.395 12.9046 162.74 13.6099C163.121 14.4473 163.305 15.3605 163.28 16.2799H159.52C159.544 15.8422 159.469 15.4046 159.3 14.9999C159.145 14.6686 158.912 14.3803 158.62 14.16C158.321 13.9382 157.981 13.7784 157.62 13.69C157.197 13.5957 156.764 13.5487 156.33 13.55C155.953 13.5508 155.578 13.591 155.21 13.67C154.859 13.7401 154.522 13.8649 154.21 14.04C153.916 14.214 153.666 14.4535 153.48 14.7399C153.29 15.0603 153.193 15.4274 153.2 15.8C153.198 16.0087 153.242 16.2153 153.328 16.4053C153.415 16.5953 153.541 16.7642 153.7 16.8999C154.05 17.2069 154.449 17.4535 154.88 17.6299C155.342 17.8266 155.82 17.9807 156.31 18.09L157.5 18.3499C158.161 18.5212 158.809 18.7384 159.44 18.9999C160 19.2245 160.517 19.5424 160.97 19.94C161.403 20.3344 161.745 20.819 161.97 21.3599C162.218 21.9967 162.337 22.6766 162.32 23.3599C162.351 24.3236 162.119 25.2777 161.65 26.12C161.23 26.8572 160.645 27.487 159.94 27.9599C159.216 28.4326 158.414 28.7714 157.57 28.9599C156.72 29.174 155.847 29.2815 154.97 29.2799C152.45 29.2799 150.56 28.77 149.33 27.74C148.673 27.1252 148.164 26.3692 147.842 25.529C147.52 24.6888 147.392 23.7864 147.47 22.8899H151.23C151.107 23.4728 151.128 24.0768 151.29 24.6499Z" fill="white"/>
<path d="M167.01 24.6499C167.189 25.0477 167.468 25.3923 167.82 25.6499C168.201 25.9109 168.629 26.0944 169.08 26.1899C169.606 26.302 170.142 26.3557 170.68 26.3499C171.088 26.3487 171.494 26.2984 171.89 26.1999C172.277 26.1055 172.648 25.9538 172.99 25.7499C173.314 25.5479 173.59 25.2785 173.8 24.9599C174.017 24.6128 174.125 24.2088 174.11 23.7999C174.119 23.6038 174.088 23.4079 174.019 23.2241C173.95 23.0403 173.845 22.8721 173.71 22.7298C173.422 22.4321 173.084 22.1883 172.71 22.0099C172.236 21.7921 171.744 21.6148 171.24 21.4798L169.59 20.9999C169.021 20.8324 168.463 20.6287 167.92 20.3899C167.393 20.1634 166.903 19.8563 166.47 19.4798C166.047 19.1 165.706 18.6371 165.47 18.1198C165.189 17.4916 165.056 16.8075 165.08 16.1198C165.054 15.2188 165.271 14.3274 165.71 13.5399C166.119 12.8466 166.68 12.2551 167.35 11.8099C168.052 11.3509 168.826 11.0128 169.64 10.8099C170.488 10.6016 171.357 10.4975 172.23 10.4999C173.113 10.4927 173.993 10.5969 174.85 10.8099C175.622 11.0001 176.349 11.3399 176.99 11.8099C177.615 12.2861 178.118 12.9027 178.46 13.6098C178.841 14.4472 179.025 15.3604 179 16.2799H175.24C175.264 15.8421 175.189 15.4045 175.02 14.9999C174.865 14.6686 174.632 14.3802 174.34 14.1599C174.043 13.935 173.703 13.7749 173.34 13.6899C172.916 13.5956 172.484 13.5487 172.05 13.5499C171.674 13.5507 171.298 13.591 170.93 13.6699C170.579 13.7375 170.241 13.8625 169.93 14.0399C169.631 14.2109 169.377 14.4509 169.19 14.7398C169.003 15.0612 168.91 15.4283 168.92 15.7999C168.916 16.008 168.958 16.2143 169.043 16.4044C169.127 16.5945 169.253 16.7636 169.41 16.8999C169.762 17.2091 170.165 17.456 170.6 17.6299C171.058 17.8279 171.533 17.9821 172.02 18.0899L173.21 18.3498C173.891 18.519 174.56 18.7362 175.21 18.9999C175.765 19.2268 176.279 19.5445 176.73 19.9399C177.166 20.3321 177.508 20.8174 177.73 21.3598C177.982 21.9959 178.104 22.6759 178.09 23.3598C178.116 24.323 177.885 25.2758 177.42 26.1199C176.993 26.8553 176.405 27.4843 175.7 27.9599C174.979 28.4307 174.18 28.7693 173.34 28.9599C172.486 29.1733 171.61 29.2808 170.73 29.2799C168.21 29.2799 166.33 28.7666 165.09 27.7399C164.433 27.1252 163.924 26.3692 163.602 25.529C163.28 24.6888 163.152 23.7864 163.23 22.8899H166.99C166.854 23.4695 166.861 24.0735 167.01 24.6499Z" fill="white"/>
<path d="M193.71 24.92C193.337 25.8496 192.782 26.6959 192.08 27.41C191.377 28.0928 190.529 28.6089 189.6 28.92C188.452 29.2954 187.248 29.4712 186.04 29.44C185.169 29.4425 184.3 29.3486 183.45 29.16C182.647 28.9984 181.879 28.6972 181.18 28.27C180.514 27.8593 179.958 27.2931 179.56 26.6201C179.127 25.856 178.913 24.9877 178.94 24.11C178.938 23.6568 178.982 23.2045 179.07 22.76C179.15 22.31 179.24 21.8701 179.32 21.4301L181.52 11H185.52L183.32 21.4301C183.32 21.5801 183.25 21.7601 183.2 21.9501C183.15 22.1401 183.12 22.3501 183.08 22.5701C183.04 22.7901 183 22.9901 182.98 23.1901C182.966 23.3631 182.966 23.537 182.98 23.7101C182.984 23.9662 183.031 24.2198 183.12 24.4601C183.219 24.7682 183.399 25.0443 183.64 25.26C183.93 25.5294 184.27 25.74 184.64 25.88C185.184 26.0648 185.756 26.1495 186.33 26.13C187.011 26.1592 187.69 26.0538 188.33 25.82C188.808 25.6314 189.231 25.3253 189.56 24.9301C189.891 24.5147 190.139 24.0393 190.29 23.53C190.47 22.97 190.63 22.3601 190.78 21.6801L193.03 11H197.03L194.83 21.48C194.564 22.6588 194.189 23.8105 193.71 24.92Z" fill="white"/>
<path d="M207.15 11C207.893 10.9737 208.636 11.0444 209.36 11.21C209.98 11.3502 210.561 11.6268 211.06 12.02C211.544 12.4123 211.919 12.9217 212.15 13.5C212.419 14.2084 212.548 14.9623 212.53 15.7199C212.534 16.3172 212.428 16.9102 212.22 17.4699C212.029 18.0077 211.741 18.506 211.37 18.94C210.993 19.3713 210.547 19.7363 210.05 20.02C209.534 20.3083 208.967 20.495 208.38 20.57C208.704 20.6509 209.007 20.8032 209.264 21.0161C209.522 21.2289 209.729 21.4968 209.87 21.8C210.14 22.4312 210.27 23.1137 210.25 23.8C210.25 24.2 210.25 24.69 210.19 25.25C210.13 25.81 210.13 26.37 210.13 26.93C210.126 27.314 210.143 27.6978 210.18 28.08C210.199 28.4211 210.266 28.7578 210.38 29.08H206.52C206.465 28.8758 206.422 28.6689 206.39 28.46C206.353 28.2622 206.336 28.0612 206.34 27.86C206.339 27.2486 206.372 26.6376 206.44 26.03C206.508 25.4224 206.542 24.8114 206.54 24.2C206.556 23.8337 206.491 23.4684 206.35 23.13C206.234 22.8649 206.051 22.6343 205.82 22.46C205.576 22.2867 205.295 22.1704 205 22.12C204.65 22.0572 204.295 22.0271 203.94 22.03H200.2L198.71 29.03H194.77L198.53 11.03L207.15 11ZM204.47 19.16C204.988 19.1605 205.505 19.1034 206.01 18.9899C206.468 18.8952 206.907 18.7263 207.31 18.4899C207.681 18.271 207.993 17.9656 208.22 17.5999C208.457 17.2089 208.576 16.7572 208.56 16.3C208.578 15.8962 208.495 15.4942 208.32 15.13C208.177 14.8484 207.955 14.6154 207.68 14.46C207.388 14.3023 207.069 14.2005 206.74 14.16C206.372 14.107 206.001 14.0803 205.63 14.08H201.87L200.81 19.16H204.47Z" fill="white"/>
<path d="M229.28 11L228.6 14.3301H218.79L217.98 18.2001H227.01L226.36 21.28H217.29L216.35 25.7H226.35L225.64 29.04H211.74L215.51 11.04L229.28 11Z" fill="white"/>
</svg>
